<?xml version="1.0" encoding="UTF-8"?>
<svg id="Layer_1" xmlns="http://www.w3.org/2000/svg" xmlns:xlink="http://www.w3.org/1999/xlink" viewBox="0 0 1066.59 746.59">
  <defs>
    <style>
      .cls-1 {
        fill: url(#radial-gradient);
      }
    </style>
    <radialGradient id="radial-gradient" cx="545.03" cy="726.64" fx="545.03" fy="726.64" r="602.35" gradientUnits="userSpaceOnUse">
      <stop offset="0" stop-color="#007945"/>
      <stop offset="1" stop-color="#22b573"/>
    </radialGradient>
  </defs>
  <path class="cls-1" d="M578.79,408.75c0,190.95-45.5,282.75-45.5,282.75,0,0-45.5-91.8-45.5-282.75,0-190.95,45.5-408.75,45.5-408.75,0,0,45.5,217.8,45.5,408.75ZM899.53,229.83s-148.25,121.12-243.65,252.43c-95.4,131.31-101.84,223.09-101.84,223.09,0,0,85.29-34.48,180.7-165.79,95.4-131.31,164.79-309.73,164.79-309.73ZM1066.59,577.63s-171.34,1.28-307.54,45.54c-136.2,44.26-185.7,114.73-185.7,114.73,0,0,81.46,27.92,217.67-16.33,136.2-44.26,275.57-143.93,275.57-143.93ZM331.85,539.56c95.4,131.31,180.7,165.79,180.7,165.79,0,0-6.43-91.77-101.84-223.09-95.4-131.31-243.65-252.43-243.65-252.43,0,0,69.38,178.42,164.79,309.73ZM275.57,721.56c136.2,44.26,217.67,16.33,217.67,16.33,0,0-49.49-70.47-185.7-114.73C171.34,578.91,0,577.63,0,577.63c0,0,139.37,99.67,275.57,143.93Z"/>
</svg>